# xmcd CD database file
#
# Track frame offsets:
#	150
#	19540
#	35030
#	50305
#	69559
#	87594
#	103507
#	116313
#	136328
#	155068
#	173407
#	189056
#	202142
#
# Disc length: 2964 seconds
#
# Revision: 0
# Processed by: cddbd v1.5.2PL0 Copyright (c) Steve Scherf et al.
# Submitted via: CDex 1.51
#
DISCID=a70b920d
DTITLE=Rory Ellis - Two Feathers
DYEAR=2008
DGENRE=Country
TTITLE0=Passenger
TTITLE1=Bringin Dady Home
TTITLE2=Home Tonight
TTITLE3=Rollin On
TTITLE4=Two Feathers
TTITLE5=Suburban Soldier
TTITLE6=Work
TTITLE7=Little One
TTITLE8=No Love In This War
TTITLE9=Take Me Away
TTITLE10=Dear Satan
TTITLE11=Wrong Side Of The Tracks
TTITLE12=Darlin Man
EXTD=YEAR: 2008
EXTT0=
EXTT1=
EXTT2=
EXTT3=
EXTT4=
EXTT5=
EXTT6=
EXTT7=
EXTT8=
EXTT9=
EXTT10=
EXTT11=
EXTT12=
PLAYORDER=
